<svg width="37" height="37" viewBox="0 0 37 37" fill="none" xmlns="http://www.w3.org/2000/svg">
<path d="M4.625 12.3337C4.625 13.1816 5.31875 13.8753 6.16667 13.8753C7.01458 13.8753 7.70833 13.1816 7.70833 12.3337V9.25033H10.7917C11.6396 9.25033 12.3333 8.55658 12.3333 7.70866C12.3333 6.86074 11.6396 6.16699 10.7917 6.16699H7.70833V3.08366C7.70833 2.23574 7.01458 1.54199 6.16667 1.54199C5.31875 1.54199 4.625 2.23574 4.625 3.08366V6.16699H1.54167C0.69375 6.16699 0 6.86074 0 7.70866C0 8.55658 0.69375 9.25033 1.54167 9.25033H4.625V12.3337Z" fill="#A956FF"/>
<ellipse cx="20.041" cy="21.583" rx="4.625" ry="4.625" fill="#A956FF"/>
<path fill-rule="evenodd" clip-rule="evenodd" d="M27.4879 9.25033H32.375C34.0708 9.25033 35.4583 10.6378 35.4583 12.3337V30.8337C35.4583 32.5295 34.0708 33.917 32.375 33.917H7.70833C6.0125 33.917 4.625 32.5295 4.625 30.8337V14.9853C5.0875 15.2474 5.59625 15.417 6.16667 15.417C7.8625 15.417 9.25 14.0295 9.25 12.3337V10.792H10.7917C12.4875 10.792 13.875 9.40449 13.875 7.70866C13.875 7.13824 13.7054 6.62949 13.4433 6.16699H23.31C24.1733 6.16699 25.0058 6.53699 25.5763 7.16908L27.4879 9.25033ZM12.3333 21.5837C12.3333 25.8387 15.7867 29.292 20.0417 29.292C24.2967 29.292 27.75 25.8387 27.75 21.5837C27.75 17.3287 24.2967 13.8753 20.0417 13.8753C15.7867 13.8753 12.3333 17.3287 12.3333 21.5837Z" fill="#A956FF"/>
</svg>
