<svg width="66" height="61" viewBox="0 0 66 61" fill="none" xmlns="http://www.w3.org/2000/svg">
<path d="M24.18 0.789186C18.51 0.759186 12.99 6.21919 15.51 12.9992H6C4.4087 12.9992 2.88258 13.6313 1.75736 14.7565C0.632141 15.8818 0 17.4079 0 18.9992V24.9992C0 25.7948 0.31607 26.5579 0.87868 27.1205C1.44129 27.6831 2.20435 27.9992 3 27.9992H30V18.9992H36V27.9992H63C63.7957 27.9992 64.5587 27.6831 65.1213 27.1205C65.6839 26.5579 66 25.7948 66 24.9992V18.9992C66 17.4079 65.3679 15.8818 64.2426 14.7565C63.1174 13.6313 61.5913 12.9992 60 12.9992H50.49C54 3.18919 40.8 -3.74081 34.71 4.71919L33 6.99919L31.29 4.65919C29.4 1.98919 26.79 0.819186 24.18 0.789186ZM24 6.99919C26.67 6.99919 28.02 10.2392 26.13 12.1292C24.24 14.0192 21 12.6692 21 9.99919C21 9.20354 21.3161 8.44048 21.8787 7.87787C22.4413 7.31526 23.2044 6.99919 24 6.99919ZM42 6.99919C44.67 6.99919 46.02 10.2392 44.13 12.1292C42.24 14.0192 39 12.6692 39 9.99919C39 9.20354 39.3161 8.44048 39.8787 7.87787C40.4413 7.31526 41.2043 6.99919 42 6.99919ZM3 30.9992V54.9992C3 56.5905 3.63214 58.1166 4.75736 59.2418C5.88258 60.3671 7.4087 60.9992 9 60.9992H57C58.5913 60.9992 60.1174 60.3671 61.2426 59.2418C62.3679 58.1166 63 56.5905 63 54.9992V30.9992H36V54.9992H30V30.9992H3Z" fill="#A956FF"/>
</svg>
