<svg width="134" height="25" viewBox="0 0 134 25" fill="none" xmlns="http://www.w3.org/2000/svg">
<path d="M0.571259 1.09045H2.38313V13.798H0.571259V1.09045Z" fill="#344767"/>
<path d="M19.4767 1.09045V13.798H17.9899L10.3686 4.3242V13.798H8.55673V1.09045H10.0436L17.6649 10.5642V1.09045H19.4767Z" fill="#344767"/>
<path d="M29.349 13.9458C28.3944 13.9458 27.4722 13.7975 26.5784 13.4989C25.6887 13.2024 24.994 12.8164 24.4903 12.3452L25.1565 10.9314C25.644 11.3661 26.2636 11.7196 27.0172 11.9958C27.7748 12.268 28.5528 12.4021 29.349 12.4021C30.4053 12.4021 31.1934 12.2233 31.7134 11.8658C32.2334 11.5083 32.4934 11.035 32.4934 10.4439C32.4934 10.0052 32.3492 9.65174 32.0628 9.37955C31.7805 9.10939 31.4311 8.90018 31.0147 8.75393C30.5962 8.60768 30.0072 8.44518 29.2434 8.26643C28.2847 8.03486 27.5128 7.8033 26.9278 7.5758C26.3428 7.34424 25.8411 6.98877 25.4247 6.51143C25.0062 6.03611 24.799 5.39018 24.799 4.57768C24.799 3.90127 24.9737 3.29189 25.3272 2.74955C25.6847 2.20314 26.225 1.76643 26.9522 1.44143C27.6773 1.11236 28.5792 0.945801 29.6578 0.945801C30.4094 0.945801 31.1487 1.0433 31.8759 1.2383C32.6011 1.4333 33.2247 1.71361 33.7447 2.07518L33.1434 3.52955C32.6112 3.1883 32.0425 2.93236 31.4372 2.75768C30.8359 2.57893 30.2428 2.48955 29.6578 2.48955C28.628 2.48955 27.8561 2.68049 27.3422 3.0583C26.8323 3.43205 26.5784 3.91549 26.5784 4.50455C26.5784 4.9433 26.7206 5.29877 27.009 5.56893C27.3015 5.84111 27.6611 6.05236 28.0897 6.20268C28.5162 6.35502 29.1012 6.51549 29.8447 6.68205C30.7973 6.91564 31.5631 7.14924 32.144 7.3808C32.729 7.6083 33.2287 7.95768 33.6472 8.42893C34.0636 8.90018 34.2728 9.53393 34.2728 10.3302C34.2728 10.9964 34.09 11.6058 33.7284 12.1583C33.3648 12.7067 32.8123 13.1414 32.0709 13.4664C31.3336 13.7874 30.4256 13.9458 29.349 13.9458Z" fill="#344767"/>
<path d="M39.2815 1.09045H41.0934V13.798H39.2815V1.09045Z" fill="#344767"/>
<path d="M47.267 1.09045H52.6213C53.964 1.09045 55.1563 1.35858 56.1963 1.89483C57.2363 2.42702 58.0427 3.17452 58.6176 4.13733C59.1904 5.09608 59.4788 6.19905 59.4788 7.4442C59.4788 8.69139 59.1904 9.79639 58.6176 10.7592C58.0427 11.718 57.2363 12.4655 56.1963 13.0017C55.1563 13.5339 53.964 13.798 52.6213 13.798H47.267V1.09045ZM52.5076 12.2217C53.5354 12.2217 54.4413 12.0226 55.2213 11.6205C56.0013 11.2203 56.6026 10.6597 57.0251 9.93858C57.4517 9.21952 57.667 8.3867 57.667 7.4442C57.667 6.5017 57.4517 5.67092 57.0251 4.94983C56.6026 4.23077 56.0013 3.67217 55.2213 3.27608C54.4413 2.87592 53.5354 2.67483 52.5076 2.67483H49.0788V12.2217H52.5076Z" fill="#344767"/>
<path d="M68.4434 6.42858C69.6885 6.54842 70.6371 6.93233 71.2871 7.58233C71.9412 8.22827 72.2703 9.05295 72.2703 10.0605C72.2703 10.7876 72.0874 11.4458 71.7259 12.0348C71.3623 12.6198 70.8199 13.087 70.1009 13.4323C69.3798 13.7736 68.5003 13.9442 67.4603 13.9442C66.5543 13.9442 65.6829 13.8081 64.844 13.538C64.0092 13.2617 63.3267 12.8839 62.7965 12.4005L63.6334 10.9623C64.066 11.3747 64.6206 11.7058 65.299 11.9536C65.9815 12.2034 66.7006 12.3273 67.4603 12.3273C68.4068 12.3273 69.1442 12.1303 69.6703 11.7342C70.1943 11.334 70.4584 10.7815 70.4584 10.0767C70.4584 9.37389 70.1984 8.82952 69.6784 8.44358C69.1584 8.05358 68.3703 7.85858 67.314 7.85858H66.2984V6.59108L69.4996 2.67483H63.3815V1.09045H71.7665V2.32545L68.4434 6.42858Z" fill="#344767"/>
<path d="M85.8471 13.798L83.109 9.89795C82.7678 9.9203 82.4996 9.93046 82.3046 9.93046H79.1684V13.798H77.3565V1.09045H82.3046C83.9499 1.09045 85.2459 1.48655 86.1884 2.2767C87.1349 3.0628 87.6103 4.14342 87.6103 5.51858C87.6103 6.49967 87.3665 7.33655 86.879 8.0292C86.3956 8.7178 85.709 9.21952 84.8153 9.53233L87.8296 13.798H85.8471ZM82.2559 8.3867C83.4035 8.3867 84.279 8.14092 84.8803 7.64733C85.4856 7.14967 85.7903 6.44077 85.7903 5.51858C85.7903 4.60452 85.4856 3.9017 84.8803 3.4142C84.279 2.92264 83.4035 2.67483 82.2559 2.67483H79.1684V8.3867H82.2559Z" fill="#344767"/>
<path d="M96.6064 13.9458C95.6517 13.9458 94.7295 13.7975 93.8357 13.4989C92.9461 13.2024 92.2514 12.8164 91.7476 12.3452L92.4139 10.9314C92.9014 11.3661 93.5209 11.7196 94.2745 11.9958C95.0322 12.268 95.8101 12.4021 96.6064 12.4021C97.6626 12.4021 98.4507 12.2233 98.9707 11.8658C99.4907 11.5083 99.7507 11.035 99.7507 10.4439C99.7507 10.0052 99.6065 9.65174 99.3201 9.37955C99.0378 9.10939 98.6884 8.90018 98.272 8.75393C97.8536 8.60768 97.2645 8.44518 96.5007 8.26643C95.542 8.03486 94.7701 7.8033 94.1851 7.5758C93.6001 7.34424 93.0984 6.98877 92.682 6.51143C92.2636 6.03611 92.0564 5.39018 92.0564 4.57768C92.0564 3.90127 92.2311 3.29189 92.5845 2.74955C92.942 2.20314 93.4823 1.76643 94.2095 1.44143C94.9347 1.11236 95.8365 0.945801 96.9151 0.945801C97.6667 0.945801 98.4061 1.0433 99.1332 1.2383C99.8584 1.4333 100.482 1.71361 101.002 2.07518L100.401 3.52955C99.8686 3.1883 99.2998 2.93236 98.6945 2.75768C98.0932 2.57893 97.5001 2.48955 96.9151 2.48955C95.8853 2.48955 95.1134 2.68049 94.5995 3.0583C94.0897 3.43205 93.8357 3.91549 93.8357 4.50455C93.8357 4.9433 93.9779 5.29877 94.2664 5.56893C94.5589 5.84111 94.9184 6.05236 95.347 6.20268C95.7736 6.35502 96.3586 6.51549 97.102 6.68205C98.0547 6.91564 98.8204 7.14924 99.4014 7.3808C99.9864 7.6083 100.486 7.95768 100.904 8.42893C101.321 8.90018 101.53 9.53393 101.53 10.3302C101.53 10.9964 101.347 11.6058 100.986 12.1583C100.622 12.7067 100.07 13.1414 99.3282 13.4664C98.5909 13.7874 97.6829 13.9458 96.6064 13.9458Z" fill="#344767"/>
<path d="M106.701 13.9057C106.36 13.9057 106.067 13.7899 105.824 13.5563C105.584 13.3187 105.466 13.018 105.466 12.6544C105.466 12.303 105.584 12.0105 105.824 11.7769C106.067 11.5393 106.36 11.4194 106.701 11.4194C107.036 11.4194 107.319 11.5372 107.546 11.7688C107.778 11.9963 107.896 12.2929 107.896 12.6544C107.896 13.018 107.776 13.3187 107.538 13.5563C107.305 13.7899 107.026 13.9057 106.701 13.9057Z" fill="#344767"/>
<path d="M113.018 1.09045H114.83V13.798H113.018V1.09045Z" fill="#344767"/>
<path d="M126.74 13.9458C125.456 13.9458 124.298 13.6655 123.27 13.1008C122.24 12.5381 121.43 11.7602 120.841 10.7689C120.256 9.77768 119.963 8.67064 119.963 7.4458C119.963 6.22299 120.256 5.11393 120.841 4.12268C121.43 3.13143 122.24 2.35549 123.27 1.7908C124.298 1.22814 125.456 0.945801 126.74 0.945801C128.007 0.945801 129.155 1.22814 130.185 1.7908C131.212 2.35549 132.017 3.12939 132.598 4.11455C133.177 5.10174 133.467 6.2108 133.467 7.4458C133.467 8.6808 133.177 9.79189 132.598 10.7771C132.017 11.7642 131.212 12.5381 130.185 13.1008C129.155 13.6655 128.007 13.9458 126.74 13.9458ZM126.74 12.3289C127.67 12.3289 128.507 12.1177 129.25 11.6952C129.992 11.2727 130.577 10.6917 131.005 9.9483C131.438 9.2008 131.655 8.36799 131.655 7.4458C131.655 6.52564 131.438 5.69486 131.005 4.95143C130.577 4.21002 129.992 3.62705 129.25 3.20455C128.507 2.77799 127.67 2.56268 126.74 2.56268C125.801 2.56268 124.954 2.77799 124.196 3.20455C123.443 3.62705 122.852 4.21002 122.425 4.95143C121.997 5.69486 121.783 6.52564 121.783 7.4458C121.783 8.36799 121.997 9.2008 122.425 9.9483C122.852 10.6917 123.443 11.2727 124.196 11.6952C124.954 12.1177 125.801 12.3289 126.74 12.3289Z" fill="#344767"/>
<path d="M34.4204 19.7906H34.9566V24.8688H34.4204V19.7906Z" fill="#344767"/>
<path d="M42.2328 19.7906V24.8688H41.7941L38.5278 20.7494V24.8688H37.9916V19.7906H38.4303L41.7047 23.91V19.7906H42.2328Z" fill="#344767"/>
<path d="M49.5345 20.2538H47.7551V19.7906H51.8583V20.2538H50.0708V24.8688H49.5345V20.2538Z" fill="#344767"/>
<path d="M58.3375 19.7906V24.8688H57.8094V22.5288H54.6325V24.8688H54.0963V19.7906H54.6325V22.0575H57.8094V19.7906H58.3375Z" fill="#344767"/>
<path d="M64.9666 24.4056V24.8688H61.3754V19.7906H64.8529V20.2538H61.9116V22.0575H64.536V22.5206H61.9116V24.4056H64.9666Z" fill="#344767"/>
<path d="M72.4665 22.48L71.4265 23.5363V24.8688H70.8903V19.7906H71.4265V22.8619L74.4084 19.7906H75.0259L72.824 22.09L75.1803 24.8688H74.5384L72.4665 22.48Z" fill="#344767"/>
<path d="M81.6704 19.7906V24.8688H81.2317L77.9654 20.7494V24.8688H77.4292V19.7906H77.8679L81.1423 23.91V19.7906H81.6704Z" fill="#344767"/>
<path d="M86.9265 24.9064C86.4227 24.9064 85.9637 24.7968 85.5534 24.5733C85.1471 24.3458 84.8262 24.0371 84.5946 23.6471C84.3671 23.2571 84.2534 22.8163 84.2534 22.3227C84.2534 21.8352 84.3671 21.3964 84.5946 21.0064C84.8262 20.6164 85.1471 20.3118 85.5534 20.0883C85.9637 19.8608 86.4227 19.7471 86.9265 19.7471C87.4302 19.7471 87.8812 19.8588 88.2834 20.0802C88.6896 20.3036 89.0085 20.6124 89.2421 21.0064C89.4737 21.3964 89.5915 21.8352 89.5915 22.3227C89.5915 22.8163 89.4737 23.2611 89.2421 23.6552C89.0085 24.0452 88.6896 24.3519 88.2834 24.5733C87.8812 24.7968 87.4302 24.9064 86.9265 24.9064ZM86.9265 24.4271C87.3266 24.4271 87.6902 24.3377 88.0152 24.1589C88.3402 23.9761 88.5941 23.7243 88.779 23.4033C88.9618 23.0844 89.0552 22.7249 89.0552 22.3227C89.0552 21.9286 88.9618 21.5711 88.779 21.2502C88.5941 20.9252 88.3402 20.6733 88.0152 20.4946C87.6902 20.3118 87.3266 20.2183 86.9265 20.2183C86.5243 20.2183 86.1587 20.3118 85.8296 20.4946C85.5046 20.6733 85.2487 20.9252 85.0659 21.2502C84.881 21.5711 84.7896 21.9286 84.7896 22.3227C84.7896 22.7249 84.881 23.0844 85.0659 23.4033C85.2487 23.7243 85.5046 23.9761 85.8296 24.1589C86.1587 24.3377 86.5243 24.4271 86.9265 24.4271Z" fill="#344767"/>
<path d="M99.1474 19.7906L97.433 24.8688H96.8724L95.3855 20.5381L93.8905 24.8688H93.3299L91.6155 19.7906H92.168L93.6305 24.1538L95.1499 19.7906H95.6536L97.1486 24.1781L98.6355 19.7906H99.1474Z" fill="#344767"/>
</svg>
