<svg width="41" height="40" viewBox="0 0 41 40" fill="none" xmlns="http://www.w3.org/2000/svg">
<path d="M28.5301 11.2266L21.0071 16.823L22.4062 13.5202L28.5301 11.2266Z" fill="#E17726"/>
<path d="M11.1446 11.2266L18.6218 16.8689L17.2915 13.5202L11.1446 11.2266Z" fill="#E27625"/>
<path d="M25.8245 24.1857L23.8062 27.2592L28.1182 28.4518L29.3338 24.2545L25.8245 24.1857Z" fill="#E27625"/>
<path d="M10.3662 24.2545L11.5818 28.4518L15.8709 27.2592L13.8755 24.1857L10.3662 24.2545Z" fill="#E27625"/>
<path d="M15.641 19.0019L14.4483 20.8139L18.6915 20.9974L18.5539 16.4101L15.641 19.0019Z" fill="#E27625"/>
<path d="M24.0576 19.0019L21.0988 16.3643L21.0071 20.9974L25.2503 20.8139L24.0576 19.0019Z" fill="#E27625"/>
<path d="M15.8688 27.2592L18.4377 26.0206L16.2129 24.2775L15.8688 27.2592Z" fill="#E27625"/>
<path d="M21.2594 26.0206L23.8062 27.2592L23.4613 24.2775L21.2594 26.0206Z" fill="#E27625"/>
<path d="M23.8062 27.2592L21.2594 26.0206L21.4658 27.6718L21.4429 28.3829L23.8062 27.2592Z" fill="#D5BFB2"/>
<path d="M15.8709 27.2592L18.2556 28.3829L18.2327 27.6718L18.4391 26.0204L15.8709 27.2592Z" fill="#D5BFB2"/>
<path d="M15.8709 27.2592L16.2372 24.1857L13.8748 24.2545L15.8709 27.2592Z" fill="#CC6228"/>
<path d="M23.4623 24.1857L23.8062 27.2592L25.8248 24.2545L23.4623 24.1857Z" fill="#CC6228"/>
<path d="M25.2503 20.8139L21.0071 20.9974L21.397 23.1764L22.0163 21.869L23.5301 22.5571L25.2503 20.8139Z" fill="#CC6228"/>
<path d="M16.1686 22.5571L17.6594 21.869L18.3016 23.1764L18.6915 20.9974L14.4483 20.8139L16.1686 22.5571Z" fill="#CC6228"/>
<path d="M14.4483 20.8139L16.2144 24.2773L16.1686 22.5571L14.4483 20.8139Z" fill="#E27525"/>
<path d="M23.5311 22.5571L23.4623 24.2773L25.2514 20.814L23.5311 22.5571Z" fill="#E27525"/>
<path d="M18.6915 20.9974L18.3016 23.1764L18.7828 25.7687L18.8975 22.3512L18.6915 20.9974Z" fill="#E27525"/>
<path d="M21.0084 20.998L20.802 22.3512L20.8937 25.7687L21.3983 23.1769L21.0084 20.998Z" fill="#E27525"/>
<path d="M21.3983 23.1769L20.8937 25.7687L21.2608 26.0202L23.4623 24.2773L23.5311 22.5571L21.3983 23.1769Z" fill="#F5841F"/>
<path d="M16.1686 22.5571L16.2144 24.2773L18.4391 26.0204L18.7828 25.7687L18.3016 23.1764L16.1686 22.5571Z" fill="#F5841F"/>
<path d="M21.4429 28.3829L21.4658 27.6718L21.2602 27.511H18.4162L18.2327 27.6718L18.2556 28.3829L15.8709 27.2592L16.6959 27.9468L18.3932 29.1166H21.2832L22.9805 27.9468L23.8062 27.2592L21.4429 28.3829Z" fill="#C0AC9D"/>
<path d="M21.2594 26.0206L20.8928 25.7681L18.7828 25.7687L18.4391 26.0204L18.2327 27.6718L18.4162 27.511H21.2602L21.4658 27.6718L21.2594 26.0206Z" fill="#161616"/>
<path d="M28.8513 17.19L29.4935 14.0936L28.5301 11.2266L21.2594 16.6395L24.0576 19.0019L28.0026 20.1487L28.8742 19.1395L28.5072 18.8643L29.1036 18.3138L28.6449 17.9469L29.2412 17.4881L28.8513 17.19Z" fill="#763E1A"/>
<path d="M10.2043 14.0936L10.8466 17.19L10.4337 17.4881L11.03 17.9469L10.5713 18.3138L11.1906 18.8643L10.8007 19.1395L11.6723 20.1487L15.641 19.0019L18.4384 16.6395L11.1446 11.2266L10.2043 14.0936Z" fill="#763E1A"/>
<path d="M28.0037 20.1483L24.0587 19.0015L25.2514 20.814L23.4623 24.2773L25.8248 24.2545H29.3338L28.0037 20.1483Z" fill="#F5841F"/>
<path d="M15.641 19.0019L11.6736 20.1483L10.3662 24.2545L13.8755 24.2539L16.2144 24.2773L14.4483 20.8139L15.641 19.0019Z" fill="#F5841F"/>
<path d="M21.0087 20.997L21.261 16.6392L22.4078 13.5198H17.293L18.4398 16.6392L18.6915 20.9974L18.7839 22.3732V25.7678H20.894V22.3732L21.0087 20.997Z" fill="#F5841F"/>
<path d="M21.3983 23.1769L22.0176 21.8688L23.5311 22.5571L21.3983 23.1769Z" fill="#233447"/>
<path d="M18.3016 23.1764L16.1686 22.5571L17.6594 21.869L18.3016 23.1764Z" fill="#233447"/>
<circle cx="20.3256" cy="19.8636" r="19.0996" stroke="#F5841F" stroke-width="1.52797"/>
</svg>
