<svg width="50" height="62" viewBox="0 0 50 62" fill="none" xmlns="http://www.w3.org/2000/svg">
<path d="M25 62C17.7604 60.1917 11.7844 56.0707 7.07188 49.6372C2.35729 43.2057 0 36.0633 0 28.21V9.3L25 0L50 9.3V28.21C50 36.0633 47.6438 43.2057 42.9313 49.6372C38.2167 56.0707 32.2396 60.1917 25 62ZM25 55.49C30.0521 53.94 34.2708 50.8793 37.6562 46.3078C41.0417 41.7343 43.0208 36.6317 43.5938 31H25V6.5875L6.25 13.5625V29.605C6.25 29.9667 6.30208 30.4317 6.40625 31H25V55.49Z" fill="#A956FF"/>
</svg>
