<svg width="53" height="62" viewBox="0 0 53 62" fill="none" xmlns="http://www.w3.org/2000/svg">
<path d="M26.5 35.4286C22.5954 35.4286 18.8508 33.8733 16.0898 31.1049C13.3289 28.3365 11.7778 24.5818 11.7778 20.6667H17.6667C17.6667 23.0157 18.5973 25.2686 20.2539 26.9296C21.9105 28.5906 24.1573 29.5238 26.5 29.5238C28.8427 29.5238 31.0895 28.5906 32.7461 26.9296C34.4027 25.2686 35.3333 23.0157 35.3333 20.6667H41.2222C41.2222 24.5818 39.6711 28.3365 36.9102 31.1049C34.1492 33.8733 30.4046 35.4286 26.5 35.4286ZM26.5 5.90476C28.8427 5.90476 31.0895 6.83792 32.7461 8.49896C34.4027 10.16 35.3333 12.4128 35.3333 14.7619H17.6667C17.6667 12.4128 18.5973 10.16 20.2539 8.49896C21.9105 6.83792 24.1573 5.90476 26.5 5.90476ZM47.1111 14.7619H41.2222C41.2222 12.8233 40.8414 10.9038 40.1016 9.11277C39.3617 7.32177 38.2773 5.69443 36.9102 4.32366C35.5431 2.95289 33.9201 1.86554 32.1339 1.12368C30.3478 0.381828 28.4333 0 26.5 0C22.5954 0 18.8508 1.55527 16.0898 4.32366C13.3289 7.09206 11.7778 10.8468 11.7778 14.7619H5.88889C2.62056 14.7619 0 17.3895 0 20.6667V56.0952C0 57.6613 0.620434 59.1632 1.72482 60.2705C2.8292 61.3779 4.32706 62 5.88889 62H47.1111C48.6729 62 50.1708 61.3779 51.2752 60.2705C52.3796 59.1632 53 57.6613 53 56.0952V20.6667C53 19.1006 52.3796 17.5987 51.2752 16.4914C50.1708 15.384 48.6729 14.7619 47.1111 14.7619Z" fill="#A956FF"/>
</svg>
