<svg width="57" height="50" viewBox="0 0 57 50" fill="none" xmlns="http://www.w3.org/2000/svg">
<path d="M51.3445 10.7143H8.90625C7.92211 10.7143 7.125 9.91518 7.125 8.92857C7.125 7.94196 7.92211 7.14286 8.90625 7.14286H51.6562C52.6404 7.14286 53.4375 6.34375 53.4375 5.35714C53.4375 2.39844 51.0451 0 48.0938 0H7.125C3.18955 0 0 3.19754 0 7.14286V42.8571C0 46.8025 3.18955 50 7.125 50H51.3445C54.4639 50 57 47.5971 57 44.6429V16.0714C57 13.1172 54.4639 10.7143 51.3445 10.7143ZM46.3125 33.9286C44.3453 33.9286 42.75 32.3292 42.75 30.3571C42.75 28.385 44.3453 26.7857 46.3125 26.7857C48.2797 26.7857 49.875 28.385 49.875 30.3571C49.875 32.3292 48.2797 33.9286 46.3125 33.9286Z" fill="#A956FF"/>
</svg>
