<svg width="537" height="97" viewBox="0 0 537 97" fill="none" xmlns="http://www.w3.org/2000/svg">
<path d="M0 0.59375H7.31965V51.9298H0V0.59375Z" fill="white"/>
<path d="M76.3746 0.59375V51.9298H70.3679L39.5794 13.6575V51.9298H32.2598V0.59375H38.2665L69.055 38.866V0.59375H76.3746Z" fill="white"/>
<path d="M116.256 52.5177C112.4 52.5177 108.674 51.9187 105.064 50.7124C101.469 49.5143 98.663 47.9552 96.6279 46.0514L99.3195 40.3401C101.289 42.0962 103.792 43.524 106.836 44.64C109.897 45.7396 113.04 46.2812 116.256 46.2812C120.523 46.2812 123.707 45.5591 125.808 44.1149C127.909 42.6706 128.959 40.7587 128.959 38.3707C128.959 36.5983 128.377 35.1704 127.219 34.0709C126.079 32.9795 124.667 32.1343 122.985 31.5434C121.295 30.9526 118.915 30.2961 115.83 29.574C111.957 28.6386 108.838 27.7031 106.475 26.784C104.112 25.8486 102.085 24.4125 100.403 22.4841C98.7122 20.564 97.8752 17.9545 97.8752 14.6721C97.8752 11.9396 98.5809 9.4778 100.009 7.28683C101.453 5.07945 103.636 3.31518 106.573 2.00224C109.503 0.672882 113.146 0 117.504 0C120.54 0 123.527 0.393883 126.465 1.18165C129.394 1.96941 131.913 3.10182 134.014 4.56247L131.585 10.4379C129.435 9.0593 127.137 8.02536 124.692 7.31965C122.263 6.59753 119.867 6.23648 117.504 6.23648C113.343 6.23648 110.225 7.00783 108.149 8.53412C106.089 10.044 105.064 11.997 105.064 14.3767C105.064 16.1492 105.638 17.5852 106.803 18.6766C107.985 19.7762 109.437 20.6296 111.169 21.2368C112.892 21.8523 115.255 22.5005 118.259 23.1734C122.107 24.1171 125.201 25.0608 127.548 25.9963C129.911 26.9153 131.93 28.3267 133.62 30.2305C135.302 32.1343 136.147 34.6945 136.147 37.9112C136.147 40.6027 135.409 43.0645 133.948 45.2965C132.479 47.5121 130.247 49.2682 127.252 50.5811C124.274 51.8776 120.606 52.5177 116.256 52.5177Z" fill="white"/>
<path d="M156.382 0.59375H163.701V51.9298H156.382V0.59375Z" fill="white"/>
<path d="M188.642 0.59375H210.272C215.696 0.59375 220.513 1.67693 224.715 3.84328C228.916 5.99322 232.174 9.01299 234.496 12.9026C236.81 16.7758 237.975 21.2316 237.975 26.2618C237.975 31.3002 236.81 35.7642 234.496 39.6538C232.174 43.527 228.916 46.5467 224.715 48.7131C220.513 50.863 215.696 51.9298 210.272 51.9298H188.642V0.59375ZM209.813 45.562C213.965 45.562 217.625 44.7578 220.776 43.1331C223.927 41.5165 226.356 39.2517 228.063 36.3386C229.786 33.4337 230.656 30.0693 230.656 26.2618C230.656 22.4542 229.786 19.098 228.063 16.1849C226.356 13.2801 223.927 11.0234 220.776 9.42329C217.625 7.80673 213.965 6.99434 209.813 6.99434H195.961V45.562H209.813Z" fill="white"/>
<path d="M274.189 22.1588C279.219 22.643 283.051 24.1939 285.677 26.8198C288.319 29.4292 289.649 32.7608 289.649 36.831C289.649 39.7687 288.91 42.4274 287.45 44.8071C285.981 47.1704 283.79 49.0577 280.885 50.4527C277.972 51.8313 274.419 52.5206 270.217 52.5206C266.557 52.5206 263.037 51.9708 259.648 50.8794C256.275 49.7634 253.518 48.2371 251.376 46.2841L254.757 40.4744C256.505 42.1402 258.745 43.4777 261.486 44.4788C264.243 45.4882 267.148 45.9887 270.217 45.9887C274.041 45.9887 277.02 45.1928 279.145 43.5926C281.262 41.976 282.329 39.744 282.329 36.8966C282.329 34.0574 281.279 31.8582 279.178 30.2991C277.077 28.7235 273.893 27.9358 269.626 27.9358H265.523V22.8153L278.456 6.99434H253.74V0.59375H287.614V5.58293L274.189 22.1588Z" fill="white"/>
<path d="M344.499 51.9298L333.438 36.1745C332.059 36.2647 330.976 36.3058 330.188 36.3058H317.518V51.9298H310.199V0.59375H330.188C336.835 0.59375 342.07 2.1939 345.878 5.38599C349.702 8.56167 351.622 12.9272 351.622 18.4826C351.622 22.446 350.637 25.8269 348.668 28.6251C346.715 31.4069 343.941 33.4337 340.331 34.6974L352.508 51.9298H344.499ZM329.991 30.0693C334.628 30.0693 338.164 29.0764 340.593 27.0824C343.039 25.0719 344.27 22.2081 344.27 18.4826C344.27 14.7899 343.039 11.9507 340.593 9.98129C338.164 7.99546 334.628 6.99434 329.991 6.99434H317.518V30.0693H329.991Z" fill="white"/>
<path d="M387.963 52.5177C384.106 52.5177 380.381 51.9187 376.77 50.7124C373.176 49.5143 370.37 47.9552 368.334 46.0514L371.026 40.3401C372.995 42.0962 375.498 43.524 378.543 44.64C381.603 45.7396 384.746 46.2812 387.963 46.2812C392.23 46.2812 395.414 45.5591 397.515 44.1149C399.615 42.6706 400.666 40.7587 400.666 38.3707C400.666 36.5983 400.083 35.1704 398.926 34.0709C397.785 32.9795 396.374 32.1343 394.692 31.5434C393.001 30.9526 390.622 30.2961 387.536 29.574C383.663 28.6386 380.545 27.7031 378.182 26.784C375.818 25.8486 373.791 24.4125 372.109 22.4841C370.419 20.564 369.582 17.9545 369.582 14.6721C369.582 11.9396 370.287 9.4778 371.715 7.28683C373.16 5.07945 375.342 3.31518 378.28 2.00224C381.21 0.672882 384.853 0 389.21 0C392.246 0 395.233 0.393883 398.171 1.18165C401.101 1.96941 403.62 3.10182 405.721 4.56247L403.292 10.4379C401.142 9.0593 398.844 8.02536 396.399 7.31965C393.97 6.59753 391.574 6.23648 389.21 6.23648C385.05 6.23648 381.932 7.00783 379.856 8.53412C377.796 10.044 376.77 11.997 376.77 14.3767C376.77 16.1492 377.345 17.5852 378.51 18.6766C379.691 19.7762 381.144 20.6296 382.875 21.2368C384.599 21.8523 386.962 22.5005 389.965 23.1734C393.814 24.1171 396.907 25.0608 399.254 25.9963C401.618 26.9153 403.636 28.3267 405.327 30.2305C407.009 32.1343 407.854 34.6945 407.854 37.9112C407.854 40.6027 407.116 43.0645 405.655 45.2965C404.186 47.5121 401.954 49.2682 398.959 50.5811C395.98 51.8776 392.312 52.5177 387.963 52.5177Z" fill="white"/>
<path d="M428.746 52.3487C427.367 52.3487 426.186 51.881 425.201 50.9373C424.233 49.9772 423.757 48.7627 423.757 47.2939C423.757 45.8742 424.233 44.6926 425.201 43.7489C426.186 42.7888 427.367 42.3047 428.746 42.3047C430.1 42.3047 431.241 42.7806 432.16 43.7161C433.095 44.6352 433.571 45.8332 433.571 47.2939C433.571 48.7627 433.087 49.9772 432.127 50.9373C431.183 51.881 430.059 52.3487 428.746 52.3487Z" fill="white"/>
<path d="M454.264 0.59375H461.583V51.9298H454.264V0.59375Z" fill="white"/>
<path d="M509.696 52.5177C504.51 52.5177 499.833 51.3853 495.68 49.104C491.52 46.831 488.246 43.6882 485.866 39.6837C483.503 35.6792 482.321 31.207 482.321 26.2588C482.321 21.3189 483.503 16.8385 485.866 12.834C488.246 8.82954 491.52 5.69489 495.68 3.41365C499.833 1.14062 504.51 0 509.696 0C514.817 0 519.453 1.14062 523.613 3.41365C527.766 5.69489 531.015 8.82133 533.362 12.8012C535.701 16.7892 536.874 21.2697 536.874 26.2588C536.874 31.248 535.701 35.7366 533.362 39.7165C531.015 43.7046 527.766 46.831 523.613 49.104C519.453 51.3853 514.817 52.5177 509.696 52.5177ZM509.696 45.9858C513.454 45.9858 516.835 45.1324 519.839 43.4256C522.834 41.7187 525.197 39.3719 526.929 36.3685C528.676 33.3487 529.554 29.9843 529.554 26.2588C529.554 22.5416 528.676 19.1854 526.929 16.182C525.197 13.1869 522.834 10.8318 519.839 9.12495C516.835 7.40171 513.454 6.53189 509.696 6.53189C505.905 6.53189 502.483 7.40171 499.422 9.12495C496.378 10.8318 493.99 13.1869 492.267 16.182C490.535 19.1854 489.674 22.5416 489.674 26.2588C489.674 29.9843 490.535 33.3487 492.267 36.3685C493.99 39.3719 496.378 41.7187 499.422 43.4256C502.483 45.1324 505.905 45.9858 509.696 45.9858Z" fill="white"/>
<path d="M136.745 76.125H138.911V96.6397H136.745V76.125Z" fill="white"/>
<path d="M168.305 76.125V96.6397H166.532L153.337 79.9982V96.6397H151.171V76.125H152.943L166.171 92.7665V76.125H168.305Z" fill="white"/>
<path d="M197.803 77.9959H190.614V76.125H207.19V77.9959H199.969V96.6397H197.803V77.9959Z" fill="white"/>
<path d="M233.365 76.125V96.6397H231.232V87.1865H218.398V96.6397H216.231V76.125H218.398V85.2828H231.232V76.125H233.365Z" fill="white"/>
<path d="M260.146 94.7688V96.6397H245.638V76.125H259.686V77.9959H247.804V85.2828H258.406V87.1537H247.804V94.7688H260.146Z" fill="white"/>
<path d="M290.442 86.9896L286.241 91.2567V96.6397H284.075V76.125H286.241V88.5323L298.287 76.125H300.782L291.887 85.4141L301.406 96.6397H298.812L290.442 86.9896Z" fill="white"/>
<path d="M327.625 76.125V96.6397H325.853L312.658 79.9982V96.6397H310.491V76.125H312.264L325.492 92.7665V76.125H327.625Z" fill="white"/>
<path d="M348.859 96.8078C346.824 96.8078 344.97 96.3647 343.312 95.462C341.671 94.543 340.375 93.2957 339.439 91.7202C338.52 90.1446 338.061 88.3639 338.061 86.3699C338.061 84.4005 338.52 82.628 339.439 81.0525C340.375 79.477 341.671 78.2461 343.312 77.3434C344.97 76.4244 346.824 75.9648 348.859 75.9648C350.895 75.9648 352.716 76.4162 354.341 77.3106C355.982 78.2133 357.271 79.4606 358.214 81.0525C359.15 82.628 359.626 84.4005 359.626 86.3699C359.626 88.3639 359.15 90.161 358.214 91.753C357.271 93.3285 355.982 94.5676 354.341 95.462C352.716 96.3647 350.895 96.8078 348.859 96.8078ZM348.859 94.8712C350.476 94.8712 351.945 94.5102 353.258 93.788C354.571 93.0495 355.597 92.032 356.343 90.7354C357.082 89.4471 357.459 87.9947 357.459 86.3699C357.459 84.778 357.082 83.3337 356.343 82.0372C355.597 80.7243 354.571 79.7067 353.258 78.9846C351.945 78.2461 350.476 77.8686 348.859 77.8686C347.235 77.8686 345.758 78.2461 344.428 78.9846C343.115 79.7067 342.081 80.7243 341.343 82.0372C340.596 83.3337 340.227 84.778 340.227 86.3699C340.227 87.9947 340.596 89.4471 341.343 90.7354C342.081 92.032 343.115 93.0495 344.428 93.788C345.758 94.5102 347.235 94.8712 348.859 94.8712Z" fill="white"/>
<path d="M398.229 76.125L391.303 96.6397H389.038L383.031 79.1448L376.992 96.6397H374.727L367.801 76.125H370.033L375.942 93.7512L382.08 76.125H384.115L390.154 93.8497L396.161 76.125H398.229Z" fill="white"/>
</svg>
